<svg width='16px' height='16px' viewBox="0 0 84 84" version="1.1" xmlns="http://www.w3.org/2000/svg" xmlns:xlink="http://www.w3.org/1999/xlink" xml:space="preserve" xmlns:serif="http://www.serif.com/" style="fill-rule:evenodd;clip-rule:evenodd;stroke-linejoin:round;stroke-miterlimit:2;"><g><path d="M41.667,41.842c1.966,-0 3.644,-0.695 5.033,-2.084c1.389,-1.389 2.083,-3.068 2.083,-5.037c0,-1.967 -0.694,-3.645 -2.083,-5.033c-1.389,-1.389 -3.067,-2.084 -5.033,-2.084c-1.967,0 -3.645,0.695 -5.034,2.084c-1.389,1.388 -2.083,3.066 -2.083,5.033c0,1.969 0.694,3.648 2.083,5.037c1.389,1.389 3.067,2.084 5.034,2.084Zm-0,34.546c-9.317,-8.042 -16.275,-15.42 -20.875,-22.134c-4.603,-6.714 -6.905,-12.993 -6.905,-18.837c0.001,-8.739 2.778,-15.67 8.334,-20.792c5.555,-5.119 12.037,-7.679 19.446,-7.679c7.408,-0 13.89,2.56 19.446,7.679c5.555,5.122 8.333,12.053 8.333,20.792c-0,5.844 -2.302,12.123 -6.904,18.837c-4.6,6.714 -11.559,14.092 -20.875,22.134Z" style="fill:#212121;fill-rule:nonzero;"/></g></svg>